<?xml version="1.0" encoding="UTF-8" standalone="no"?>
<!-- Created with Inkscape (http://www.inkscape.org/) -->

<svg
   width="1080"
   height="1080"
   viewBox="0 0 1080 1080"
   version="1.1"
   id="svg1"
   xml:space="preserve"
   inkscape:version="1.3.2 (091e20e, 2023-11-25, custom)"
   sodipodi:docname="logo.svg"
   inkscape:export-filename="Icon.png"
   inkscape:export-xdpi="96"
   inkscape:export-ydpi="96"
   xmlns:inkscape="http://www.inkscape.org/namespaces/inkscape"
   xmlns:sodipodi="http://sodipodi.sourceforge.net/DTD/sodipodi-0.dtd"
   xmlns:xlink="http://www.w3.org/1999/xlink"
   xmlns="http://www.w3.org/2000/svg"
   xmlns:svg="http://www.w3.org/2000/svg"><sodipodi:namedview
     id="namedview1"
     pagecolor="#ffffff"
     bordercolor="#000000"
     borderopacity="0.25"
     inkscape:showpageshadow="2"
     inkscape:pageopacity="0.0"
     inkscape:pagecheckerboard="0"
     inkscape:deskcolor="#d1d1d1"
     inkscape:document-units="px"
     inkscape:zoom="0.73072917"
     inkscape:cx="809.46543"
     inkscape:cy="549.45117"
     inkscape:window-width="1920"
     inkscape:window-height="1009"
     inkscape:window-x="-8"
     inkscape:window-y="-8"
     inkscape:window-maximized="1"
     inkscape:current-layer="layer1"
     inkscape:export-bgcolor="#ffffff00" /><defs
     id="defs1"><linearGradient
       id="linearGradient16"
       inkscape:collect="always"><stop
         style="stop-color:#90a9ff;stop-opacity:1;"
         offset="0"
         id="stop17" /><stop
         style="stop-color:#678eff;stop-opacity:1;"
         offset="1"
         id="stop18" /></linearGradient><linearGradient
       id="linearGradient15"
       inkscape:collect="always"><stop
         style="stop-color:#90a9ff;stop-opacity:1;"
         offset="0"
         id="stop15" /><stop
         style="stop-color:#678eff;stop-opacity:1;"
         offset="1"
         id="stop16" /></linearGradient><linearGradient
       id="linearGradient13"
       inkscape:collect="always"><stop
         style="stop-color:#90a9ff;stop-opacity:1;"
         offset="0.23267329"
         id="stop13" /><stop
         style="stop-color:#678eff;stop-opacity:1;"
         offset="1"
         id="stop14" /></linearGradient><linearGradient
       id="linearGradient8"
       inkscape:collect="always"><stop
         style="stop-color:#90a9ff;stop-opacity:1;"
         offset="0.11386138"
         id="stop9" /><stop
         style="stop-color:#678eff;stop-opacity:1;"
         offset="0.85804415"
         id="stop10" /></linearGradient><linearGradient
       id="linearGradient6"
       inkscape:collect="always"><stop
         style="stop-color:#90a9ff;stop-opacity:1;"
         offset="0.3267327"
         id="stop8" /><stop
         style="stop-color:#678eff;stop-opacity:1;"
         offset="0.91948809"
         id="stop7" /></linearGradient><radialGradient
       inkscape:collect="always"
       xlink:href="#linearGradient6"
       id="radialGradient8"
       cx="904.58337"
       cy="382.13449"
       fx="904.58337"
       fy="382.13449"
       r="267.10339"
       gradientTransform="matrix(1.1443392,-0.32679506,0.20842292,0.7298352,-654.47675,416.93922)"
       gradientUnits="userSpaceOnUse"
       spreadMethod="pad" /><radialGradient
       inkscape:collect="always"
       xlink:href="#linearGradient8"
       id="radialGradient10"
       cx="977.3537"
       cy="254.71112"
       fx="977.3537"
       fy="254.71112"
       r="55.07732"
       gradientTransform="matrix(0.82390213,-1.581821,0.70994783,0.36978109,-413.27348,1618.0018)"
       gradientUnits="userSpaceOnUse" /><pattern
       id="EMFhbasepattern"
       patternUnits="userSpaceOnUse"
       width="6"
       height="6"
       x="0"
       y="0" /><radialGradient
       inkscape:collect="always"
       xlink:href="#linearGradient13"
       id="radialGradient14"
       cx="729.28198"
       cy="576.22473"
       fx="729.28198"
       fy="576.22473"
       r="118.298"
       gradientTransform="matrix(1.794211,0,0,1.4970104,-1166.0448,-51.115955)"
       gradientUnits="userSpaceOnUse" /><radialGradient
       inkscape:collect="always"
       xlink:href="#linearGradient15"
       id="radialGradient16"
       cx="997.1062"
       cy="604.86084"
       fx="997.1062"
       fy="604.86084"
       r="79.953987"
       gradientTransform="matrix(1.0968637,0.30805324,-0.16611582,0.59147702,-367.78326,141.57433)"
       gradientUnits="userSpaceOnUse" /><radialGradient
       inkscape:collect="always"
       xlink:href="#linearGradient16"
       id="radialGradient18"
       cx="1080.9333"
       cy="517.42767"
       fx="1080.9333"
       fy="517.42767"
       r="34.594299"
       gradientTransform="matrix(1.1477434,0.06779912,-0.04781109,0.80937437,-440.06231,172.27705)"
       gradientUnits="userSpaceOnUse" /></defs><g
     inkscape:label="Layer 1"
     inkscape:groupmode="layer"
     id="layer1"><path
       style="display:inline;mix-blend-mode:normal;fill:url(#radialGradient8);fill-opacity:1;stroke:none;stroke-width:3.94727;stroke-dasharray:none;stroke-opacity:1"
       d="m 116.17131,598.42025 c 0,0 -46.720167,-228.25961 125.87517,-297.32585 7.8216,-3.1299 47.38357,-72.95141 150.1821,-87.24452 7.64623,-1.06312 -44.85222,46.58796 -34.72418,72.9208 2.17026,5.64267 28.2134,-9.98321 78.56346,-8.68103 50.35006,1.30214 107.3251,-5.85324 124.13897,-12.58755 20.90609,-8.37329 73.86828,-33.83221 83.33811,-65.10784 6.20671,-20.49846 10.85122,54.6906 10.85122,54.6906 0,0 92.68015,-33.53792 198.79606,0.43405 37.2577,11.92773 139.02696,-18.41951 207.47698,-48.61385 19.9042,-8.77997 -2.6043,20.83449 -2.6043,20.83449 0,0 -108.7855,162.40916 -380.66391,197.92788 -21.95432,2.86817 94.34716,-74.71104 75.52498,-77.69536 -74.88068,-11.87256 -207.01617,75.33837 -207.04286,84.64019 -0.0286,10.02959 92.74714,67.96819 344.6375,15.62587 32.05681,-6.66134 -126.50659,97.51408 -276.92535,110.2493 -139.55787,11.81568 -275.56253,-43.75902 -378.92768,28.21342 -21.5381,14.99682 19.40518,-124.45993 111.98551,-156.25885 28.22796,-9.69557 -166.49457,-15.95614 -190.54897,167.5442 -1.24495,9.49711 -39.93281,0.43405 -39.93281,0.43405 z"
       id="path1"
       sodipodi:nodetypes="csssssscsscssssssssc" /><path
       style="fill:url(#radialGradient10);stroke:none;stroke-width:3.94727;stroke-dasharray:none;stroke-opacity:1"
       d="m 446.91917,238.59085 c 36.02635,-22.78772 133.40789,-65.54378 115.02388,-195.540558 -1.01157,-7.152909 9.34177,-7.029378 19.96639,-1.953233 17.99387,8.596984 98.35099,75.212121 19.53236,164.939891 -48.86143,55.62417 -163.66305,44.30589 -154.52263,32.5539 z"
       id="path8"
       sodipodi:nodetypes="csssc" /><path
       id="path13"
       style="fill:url(#radialGradient14);fill-opacity:1;fill-rule:evenodd;stroke:none;stroke-width:3.94727;stroke-dasharray:none;stroke-opacity:1"
       d="m 254.65207,832.67885 19.69034,-0.21697 c 8.90864,0 9.83433,1.43255 9.83433,10.77475 l -0.30691,18.37032 c 0,9.11767 -0.26128,9.88987 -8.51968,9.88987 l -39.46499,-0.30694 c -8.90866,0 -8.78611,-1.64921 -8.78611,-11.20083 v -15.5689 c 0,-10.02088 0.37711,-11.43433 9.12572,-11.43433 z m -27.82298,-51.80569 h 54.25654 l -0.21702,33.63907 c 11.30413,0 12.04495,0.75729 12.04495,10.95983 l 0.21704,38.73915 c 0,17.14507 -0.67501,17.44177 -10.07002,17.44177 h -57.9677 c -10.41726,0 -9.63268,-0.84141 -9.63268,-14.29703 l 1.51917,-41.12432 c 0,-9.99867 -0.40939,-10.65568 9.80796,-11.54415 z m -1.35946,-30.37152 v -10.31723 h 57.0614 v 11.50766 9.722 l -57.09126,0.19841 z M 225.3686,715.19553 V 704.8783 h 57.06141 v 11.50766 9.72201 l -57.09127,0.1984 z m 0.12541,-36.6957 v -10.31721 h 57.06141 v 11.50766 9.722 l -57.09127,0.1984 z M 31.071494,936.91497 V 584.46449 H 145.6613 l 54.25655,54.25655 h 255.65682 v 299.93014 z"
       sodipodi:nodetypes="ccccccccccccccccccccccccccccccccccccccccccccccccc" /><path
       style="fill:url(#radialGradient16);fill-rule:evenodd;stroke:none;stroke-width:3.94727;stroke-dasharray:none;stroke-opacity:1"
       d="m 600.90551,763.09222 64.23994,-95.92557 2.60431,118.93033 101.1341,66.41001 -120.66642,-2.6043 -70.31671,95.92555 -1.30216,-113.72171 -94.6234,-69.88243 z"
       id="path14" /><path
       style="fill:url(#radialGradient18);fill-rule:evenodd;stroke:none;stroke-width:3.94727;stroke-dasharray:none;stroke-opacity:1"
       d="m 713.76355,646.99394 49.482,-0.43404 24.7411,-44.7074 6.07664,48.61386 43.83921,26.04313 -51.6521,3.47244 -26.47719,46.87766 -3.90653,-49.04793 z"
       id="path15" /></g></svg>
